<svg xmlns="http://www.w3.org/2000/svg" viewBox="0 0 500 500"><g id="freepik--Window--inject-69"><path d="M420,102.76V297c0,5-3.73,9-8.36,9H59.82c-4.62,0-8.37-4-8.37-9V102.76c0-5,3.75-9,8.37-9H411.67C416.3,93.77,420,97.79,420,102.76Z" style="fill:#fff;stroke:#263238;stroke-linecap:round;stroke-linejoin:round;stroke-width:1.0689740180969238px"></path><rect x="64.7" y="127.79" width="94.58" height="150.85" rx="6.29" style="fill:#92E3A9"></rect><path d="M100.19,161.29a14.51,14.51,0,1,1-14.51-14.51A14.5,14.5,0,0,1,100.19,161.29Z" style="fill:#fff;stroke:#263238;stroke-linecap:round;stroke-linejoin:round;stroke-width:1.0689740180969238px"></path><rect x="114.8" y="152.95" width="30.29" height="2.87" style="fill:#263238"></rect><rect x="114.8" y="159.85" width="33.99" height="2.87" style="fill:#263238"></rect><rect x="114.8" y="166.75" width="30.29" height="2.87" style="fill:#263238"></rect><rect x="114.8" y="173.64" width="35.94" height="2.87" style="fill:#263238"></rect><rect x="75.07" y="192.77" width="73.71" height="23.66" rx="5.35" style="fill:#fff;stroke:#263238;stroke-linecap:round;stroke-linejoin:round;stroke-width:1.0689740180969238px"></rect><rect x="75.07" y="224.3" width="73.71" height="23.66" rx="5.35" style="fill:#fff;stroke:#263238;stroke-linecap:round;stroke-linejoin:round;stroke-width:1.0689740180969238px"></rect><line x1="307.83" y1="127.36" x2="307.83" y2="287.81" style="fill:none;stroke:#263238;stroke-linecap:round;stroke-linejoin:round;stroke-width:1.0689740180969238px"></line><path d="M420,102.15v13H51.45v-13a8.38,8.38,0,0,1,8.37-8.38H411.67A8.36,8.36,0,0,1,420,102.15Z" style="fill:#263238"></path><circle cx="76.65" cy="104.44" r="3.35" style="fill:#fff"></circle><path d="M95.47,104.44a3.35,3.35,0,1,1-3.35-3.35A3.35,3.35,0,0,1,95.47,104.44Z" style="fill:#fff"></path><path d="M110.75,104.44a3.35,3.35,0,1,1-3.35-3.35A3.35,3.35,0,0,1,110.75,104.44Z" style="fill:#fff"></path><rect x="322.09" y="142.26" width="80.46" height="2.67" style="fill:#92E3A9"></rect><rect x="322.09" y="150.59" width="38.86" height="2.67" style="fill:#92E3A9"></rect><rect x="322.09" y="158.92" width="62.2" height="2.67" style="fill:#92E3A9"></rect><rect x="322.09" y="167.01" width="55.56" height="2.9" style="fill:#92E3A9"></rect><rect x="322.09" y="175.58" width="53.82" height="2.67" style="fill:#92E3A9"></rect><rect x="322.09" y="183.91" width="34.97" height="2.67" style="fill:#92E3A9"></rect><rect x="322.09" y="142.26" width="80.46" height="2.67" style="opacity:0.2"></rect><rect x="322.09" y="150.59" width="38.86" height="2.67" style="opacity:0.2"></rect><rect x="322.09" y="158.92" width="62.2" height="2.67" style="opacity:0.2"></rect><rect x="322.09" y="167.01" width="55.56" height="2.9" style="opacity:0.2"></rect><rect x="322.09" y="175.58" width="53.82" height="2.67" style="opacity:0.2"></rect><rect x="322.09" y="183.91" width="34.97" height="2.67" style="opacity:0.2"></rect><circle cx="85.68" cy="160.67" r="8.33" style="fill:#263238"></circle><path d="M94,173.2a14.52,14.52,0,0,1-17-.35c1.37-2.75,4-7,7.34-7C88.52,165.79,91.37,167.63,94,173.2Z" style="fill:#263238"></path><rect x="312.47" y="99.81" width="88.56" height="9.26" rx="4.15" style="fill:#fff"></rect><line x1="317.72" y1="101.39" x2="317.72" y2="107.27" style="fill:none;stroke:#263238;stroke-linecap:round;stroke-linejoin:round;stroke-width:1.0689740180969238px"></line><rect x="119.44" y="256.8" width="27.98" height="12.97" rx="3.95" style="fill:#92E3A9"></rect><polyline points="403.53 256.99 328.84 256.99 328.84 217.85" style="fill:none;stroke:#263238;stroke-linecap:round;stroke-linejoin:round;stroke-width:1.0689740180969238px"></polyline><polyline points="331.86 240.85 335.07 248.02 351.92 225.72 355.44 236.48 362.1 232.74 377.49 248.02 388.98 237.42 393.42 242.09 401.08 227.03" style="fill:none;stroke:#263238;stroke-linecap:round;stroke-linejoin:round;stroke-width:1.0689740180969238px"></polyline><rect x="321.68" y="254.53" width="5.41" height="2.45" style="fill:#92E3A9"></rect><rect x="321.68" y="245.57" width="5.41" height="2.45" style="fill:#92E3A9"></rect><rect x="321.68" y="236.6" width="5.41" height="2.45" style="fill:#92E3A9"></rect><rect x="321.68" y="227.63" width="5.41" height="2.45" style="fill:#92E3A9"></rect><rect x="321.68" y="218.67" width="5.41" height="2.45" style="fill:#92E3A9"></rect><rect x="358.8" y="265.49" width="15.45" height="2.41" transform="translate(99.82 633.21) rotate(-90)" style="fill:#92E3A9"></rect><rect x="367.38" y="265.49" width="15.45" height="2.41" transform="translate(108.4 641.79) rotate(-90)" style="fill:#92E3A9"></rect><rect x="375.95" y="265.49" width="15.45" height="2.41" transform="translate(116.98 650.37) rotate(-90)" style="fill:#92E3A9"></rect><rect x="384.53" y="265.49" width="15.45" height="2.41" transform="translate(125.56 658.95) rotate(-90)" style="fill:#92E3A9"></rect><rect x="393.11" y="265.49" width="15.45" height="2.41" transform="translate(134.14 667.53) rotate(-90)" style="fill:#92E3A9"></rect><rect x="349.99" y="265.49" width="15.45" height="2.41" transform="translate(91.02 624.41) rotate(-90)" style="fill:#92E3A9"></rect><rect x="341.19" y="265.49" width="15.45" height="2.41" transform="translate(82.22 615.61) rotate(-90)" style="fill:#92E3A9"></rect><rect x="332.39" y="265.49" width="15.45" height="2.41" transform="translate(73.41 606.8) rotate(-90)" style="fill:#92E3A9"></rect><rect x="323.58" y="265.49" width="15.45" height="2.41" transform="translate(64.61 598) rotate(-90)" style="fill:#92E3A9"></rect><path d="M261.65,134.39a15.06,15.06,0,0,0,0,30.12h0a15.06,15.06,0,0,0,.61-30.12Z" style="fill:#263238"></path><path d="M271.2,144.62a2.48,2.48,0,0,0-1.76-1.77c-1.56-.42-7.8-.42-7.8-.42s-6.24,0-7.79.42a2.49,2.49,0,0,0-1.77,1.77,28.54,28.54,0,0,0,0,9.67,2.49,2.49,0,0,0,1.77,1.77c1.55.42,7.79.42,7.79.42s6.24,0,7.8-.42a2.5,2.5,0,0,0,1.76-1.77A28,28,0,0,0,271.2,144.62Z" style="fill:#fff"></path><polygon points="259.6 152.42 259.6 146.49 264.82 149.45 259.6 152.42" style="fill:#263238"></polygon><path d="M202.32,134.43a15,15,0,1,0,15,15A15,15,0,0,0,202.32,134.43Z" style="fill:#263238"></path><path d="M199.79,159.09h3.89v-9.74h2.71l.29-3.26h-3v-1.87c0-.77.15-1.07.9-1.07h2.1v-3.39H204c-2.89,0-4.2,1.28-4.2,3.71v2.6h-2v3.29h2Z" style="fill:#fff"></path><path d="M202.23,195.48a15.06,15.06,0,1,0,15.06,15.07v0A15.07,15.07,0,0,0,202.23,195.48Z" style="fill:#263238"></path><path d="M202.23,203.35c2.34,0,2.62,0,3.55,0a4.86,4.86,0,0,1,1.63.31,2.66,2.66,0,0,1,1,.65,2.73,2.73,0,0,1,.66,1,4.8,4.8,0,0,1,.3,1.63c0,.93,0,1.24,0,3.54s0,2.63,0,3.55a4.75,4.75,0,0,1-.3,1.63,2.61,2.61,0,0,1-.66,1,2.69,2.69,0,0,1-1,.66,5.1,5.1,0,0,1-1.63.3c-.93,0-1.21,0-3.55,0s-2.62,0-3.55,0a5,5,0,0,1-1.63-.3,2.69,2.69,0,0,1-1-.66,2.61,2.61,0,0,1-.66-1,4.75,4.75,0,0,1-.3-1.63c0-.92-.06-1.2-.06-3.55s0-2.61.06-3.54a4.8,4.8,0,0,1,.3-1.63,2.61,2.61,0,0,1,.66-1,2.66,2.66,0,0,1,1-.65,5,5,0,0,1,1.63-.31c.93,0,1.2,0,3.55,0m0-1.58c-2.38,0-2.69,0-3.62,0a6.33,6.33,0,0,0-2.1.38,4.48,4.48,0,0,0-2.56,2.56,6.54,6.54,0,0,0-.41,2.13c0,.94-.06,1.24-.06,3.62s0,2.68.06,3.62a6.44,6.44,0,0,0,.41,2.13,4.49,4.49,0,0,0,2.56,2.6,6.82,6.82,0,0,0,2.13.41c.94,0,1.24,0,3.62,0s2.68,0,3.62,0a6.82,6.82,0,0,0,2.13-.41,4.5,4.5,0,0,0,2.56-2.57,6.44,6.44,0,0,0,.41-2.13c0-.93.06-1.23.06-3.62s0-2.68-.06-3.62a6.44,6.44,0,0,0-.41-2.12,4.47,4.47,0,0,0-2.56-2.57,6.54,6.54,0,0,0-2.13-.41c-.94,0-1.24,0-3.62,0" style="fill:#fff"></path><path d="M202.23,206a4.51,4.51,0,1,0,4.5,4.52v0a4.5,4.5,0,0,0-4.5-4.5m0,7.41a2.93,2.93,0,1,1,2.92-2.93h0a2.93,2.93,0,0,1-2.92,2.93" style="fill:#fff"></path><path d="M262.21,224.49h0a14.34,14.34,0,0,1-14.35-14.35h0a14.35,14.35,0,0,1,14.35-14.35h0a14.35,14.35,0,0,1,14.35,14.35h0A14.34,14.34,0,0,1,262.21,224.49Z" style="fill:#263238;stroke:#263238;stroke-linecap:round;stroke-linejoin:round;stroke-width:1.0689740180969238px"></path><path d="M254.57,215a8.79,8.79,0,0,0,4.8,1.4A8.88,8.88,0,0,0,268.3,207a6.67,6.67,0,0,0,1.55-1.63,6.26,6.26,0,0,1-1.8.5,3.16,3.16,0,0,0,1.37-1.74,6.36,6.36,0,0,1-2,.78,3.14,3.14,0,0,0-5.34,2.86,8.91,8.91,0,0,1-6.46-3.28,3.14,3.14,0,0,0,1,4.19,3.18,3.18,0,0,1-1.42-.39,3.14,3.14,0,0,0,2.51,3.1,2.93,2.93,0,0,1-1.41,0,3.13,3.13,0,0,0,2.93,2.18A6.36,6.36,0,0,1,254.57,215Z" style="fill:#fff"></path><path d="M261.73,259.67a15.07,15.07,0,1,0,15.06,15.07A15.07,15.07,0,0,0,261.73,259.67Z" style="fill:#263238"></path><rect x="254.02" y="270.79" width="3.31" height="10.7" style="fill:#fff"></rect><path d="M255.66,269.39a2,2,0,1,0-2-2h0a2,2,0,0,0,2,2Z" style="fill:#fff"></path><path d="M262.63,275.88c0-1.51.69-2.4,2-2.4s1.8.86,1.8,2.4v5.61h3.3v-6.75c0-2.86-1.63-4.26-3.91-4.26a3.73,3.73,0,0,0-3.22,1.78v-1.43h-3.19v10.7h3.19Z" style="fill:#fff"></path><path d="M202.22,289.74h0a15.06,15.06,0,0,1-15.06-15.06h0a15.07,15.07,0,0,1,15.06-15.07h0a15.07,15.07,0,0,1,15.07,15.07h0A15.07,15.07,0,0,1,202.22,289.74Z" style="fill:#263238"></path><path d="M200,280.39a3.16,3.16,0,0,0,1.2-.53,3.18,3.18,0,0,0,1.22-2.52,2.84,2.84,0,0,0-.41-1.55,2.31,2.31,0,0,0-1.22-.93,2.67,2.67,0,0,0,.81-.6,2.36,2.36,0,0,0,.48-1.56,2.65,2.65,0,0,0-.48-1.61,3.25,3.25,0,0,0-2.74-1.12h-5.11v10.54h4.74A7.63,7.63,0,0,0,200,280.39Zm-4.14-8.59h2.29a3.74,3.74,0,0,1,1.25.17.92.92,0,0,1,.57,1,1,1,0,0,1-.43.93,2.18,2.18,0,0,1-1.12.26h-2.56Zm0,6.9v-2.82h2.59a3,3,0,0,1,1.06.17,1.16,1.16,0,0,1,.68,1.14,1.35,1.35,0,0,1-.7,1.32,2.63,2.63,0,0,1-1.07.19Z" style="fill:#fff"></path><path d="M204.17,279.84a4.24,4.24,0,0,0,2.75,1,3.76,3.76,0,0,0,3-1.14,2.44,2.44,0,0,0,.75-1.4h-2.09a1.76,1.76,0,0,1-.41.53,1.73,1.73,0,0,1-1.14.36,2.14,2.14,0,0,1-1.13-.29,1.87,1.87,0,0,1-.81-1.65h5.69a10,10,0,0,0-.06-1.55A4,4,0,0,0,210,274a3.21,3.21,0,0,0-1.35-1.15,4.45,4.45,0,0,0-1.84-.37,3.77,3.77,0,0,0-2.79,1.08,4.25,4.25,0,0,0-1,3.09A3.82,3.82,0,0,0,204.17,279.84Zm1.46-5.2a1.67,1.67,0,0,1,1.22-.45,1.81,1.81,0,0,1,1.22.43,1.69,1.69,0,0,1,.54,1.23h-3.52A2.16,2.16,0,0,1,205.63,274.64Z" style="fill:#fff"></path><rect x="204.42" y="270.57" width="4.59" height="1.07" style="fill:#fff"></rect><rect x="181.63" y="128.76" width="41.38" height="41.38" rx="4.51" style="fill:none;stroke:#92E3A9;stroke-miterlimit:10;stroke-width:1.0689740180969238px"></rect><rect x="241.26" y="128.76" width="41.38" height="41.38" rx="4.51" style="fill:none;stroke:#92E3A9;stroke-miterlimit:10;stroke-width:1.0689740180969238px"></rect><rect x="181.63" y="189.37" width="41.38" height="41.38" rx="4.51" style="fill:none;stroke:#92E3A9;stroke-miterlimit:10;stroke-width:1.0689740180969238px"></rect><rect x="241.26" y="189.37" width="41.38" height="41.38" rx="4.51" style="fill:none;stroke:#92E3A9;stroke-miterlimit:10;stroke-width:1.0689740180969238px"></rect><rect x="181.63" y="252.98" width="41.38" height="41.38" rx="4.51" style="fill:none;stroke:#92E3A9;stroke-miterlimit:10;stroke-width:1.0689740180969238px"></rect><rect x="241.26" y="252.98" width="41.38" height="41.38" rx="4.51" style="fill:none;stroke:#92E3A9;stroke-miterlimit:10;stroke-width:1.0689740180969238px"></rect><rect x="247.86" y="236.49" width="29.16" height="8.85" style="fill:#92E3A9"></rect><rect x="247.86" y="175.78" width="29.16" height="8.85" style="fill:#92E3A9"></rect><rect x="187.65" y="175.78" width="29.16" height="8.85" style="fill:#92E3A9"></rect><rect x="187.65" y="236.49" width="29.16" height="8.85" style="fill:#92E3A9"></rect><rect x="247.86" y="236.49" width="29.16" height="8.85" style="fill:#263238"></rect><rect x="247.86" y="175.78" width="29.16" height="8.85" style="fill:#263238"></rect><rect x="187.65" y="175.78" width="29.16" height="8.85" style="fill:#263238"></rect><rect x="187.65" y="236.49" width="29.16" height="8.85" style="fill:#263238"></rect><line x1="80" y1="132.22" x2="145.08" y2="132.22" style="fill:none;stroke:#263238;stroke-linecap:round;stroke-linejoin:round;stroke-width:1.0689740180969238px"></line></g></svg>
